<svg width="380" height="293" viewBox="0 0 380 293" fill="none" xmlns="http://www.w3.org/2000/svg">
<g clip-path="url(#clip0_18_422)">
<path d="M31.4568 285.494L24.5159 289.425C23.7801 289.84 23.3344 290.794 23.5608 291.704C23.7447 292.418 24.332 292.964 25.8815 293C29.313 293.073 48.1828 290.466 48.1828 290.466V292.476L55.2794 292.49C55.2794 292.49 55.7251 282.123 53.5742 280.776L31.4568 285.501V285.494Z" fill="#241812"/>
<path d="M44.44 279.08L31.4568 285.494C31.4568 285.494 36.3317 289.025 41.6311 286.673C46.9305 284.322 53.5672 280.769 53.5672 280.769L52.5978 278.083L44.4329 279.08H44.44Z" fill="#C7777A"/>
<path d="M52.6049 278.083L53.5742 248.328L43.6193 248.954V282.167L52.6049 278.083Z" fill="#C7777A"/>
<path d="M117.783 285.494L124.724 289.425C125.459 289.84 125.905 290.794 125.679 291.704C125.495 292.418 124.907 292.964 123.358 293C119.926 293.073 101.057 290.466 101.057 290.466V292.563L94.0591 292.476C94.0591 292.476 93.5143 282.13 95.6582 280.776L117.776 285.501L117.783 285.494Z" fill="#241812"/>
<path d="M104.799 279.08L117.783 285.494C117.783 285.494 112.908 289.025 107.608 286.673C102.309 284.322 95.6723 280.769 95.6723 280.769L96.6416 278.083L104.807 279.08H104.799Z" fill="#C7777A"/>
<path d="M96.6345 278.083L89.3541 248.328L99.309 248.954L106.42 282.851L96.6345 278.083Z" fill="#C7777A"/>
<path d="M49.7748 109.259C49.7748 109.259 36.7845 132.243 37.1241 152.533C37.4638 172.824 41.5816 269.077 41.5816 269.077H56.5671L61.3075 143.302L63.2886 143.178L90.3587 269.128L104.347 267.606L88.0947 153.713C86.9838 146.396 85.0735 139.225 82.307 132.389C79.9439 126.55 77.0996 116.707 73.0384 111.552L49.7748 109.266V109.259Z" fill="#255D9F"/>
<path d="M68.5597 141.11L61.3146 143.295" stroke="black" stroke-width="0.92" stroke-linecap="round" stroke-linejoin="round"/>
<path d="M61.1236 0.658219C61.1236 0.658219 78.2246 -1.50404 79.1373 13.2969L79.6184 23.4457L62.9136 27.3698L61.1236 0.658219Z" fill="#200803"/>
<path d="M46.7112 10.6905C46.7112 10.6905 42.9188 18.9464 42.4943 37.1982C42.4235 40.3579 44.8858 42.9642 47.9564 42.9642H76.7105C80.4958 42.9642 83.2622 39.0911 81.9533 35.4437C80.5453 31.5341 79.8378 26.0666 79.3284 18.9755L46.7112 10.6978V10.6905Z" fill="#200803"/>
<path d="M45.1617 18.4222C45.4872 27.4863 53.2275 34.5482 62.4537 34.1987C71.6799 33.8493 78.8968 26.2268 78.5784 17.1627C78.2529 8.10601 70.3498 0.316057 61.1236 0.658232C51.8974 1.00769 44.8433 9.35823 45.1617 18.4222Z" fill="#200803"/>
<path d="M72.2247 24.363C73.003 26.6854 75.4652 27.9231 77.7223 27.1295C79.9793 26.3287 81.1821 23.7951 80.4109 21.4727C79.6326 19.1503 77.1704 17.9126 74.9134 18.7062C72.6563 19.507 71.4535 22.0406 72.2247 24.363Z" fill="#AC555D"/>
<path d="M66.9749 33.6673L67.2437 50.645L55.0034 50.3902L58.7392 24.6396L66.9749 33.6673Z" fill="#C7777A"/>
<path d="M67.1093 42.1634L58.6897 32.5461L66.9749 33.6673L67.1093 42.1634Z" fill="#AC555D"/>
<path d="M73.2436 7.02124C74.3261 7.94585 76.2223 10.5668 76.5619 11.9937C77.5666 16.209 78.8755 22.6084 77.7293 27.1295C76.2364 33.0048 72.8474 37.9699 65.6942 36.6522C65.6942 36.6522 57.1685 35.8878 54.8124 24.2829C51.0625 5.79815 63.9962 -0.885196 73.2436 7.02124Z" fill="#C7777A"/>
<path d="M72.4229 22.3682L73.4912 25.3822L71.7861 25.6807" stroke="#1F0004" stroke-width="0.49" stroke-linecap="round" stroke-linejoin="round"/>
<path d="M65.9065 20.832C65.9065 21.429 66.3805 21.9168 66.9607 21.9168C67.5409 21.9168 68.0149 21.429 68.0149 20.832C68.0149 20.235 67.5409 19.7473 66.9607 19.7473C66.3805 19.7473 65.9065 20.235 65.9065 20.832Z" fill="#210702"/>
<path d="M74.3615 20.4534C74.3615 21.0068 74.8002 21.4581 75.3379 21.4581C75.8756 21.4581 76.3143 21.0068 76.3143 20.4534C76.3143 19.9001 75.8756 19.4488 75.3379 19.4488C74.8002 19.4488 74.3615 19.9001 74.3615 20.4534Z" fill="#210702"/>
<path d="M73.5549 13.9958C73.5549 13.9958 73.1587 14.935 74.6374 15.1315C75.7624 15.2771 76.4699 15.3572 77.0996 15.5683C77.4534 15.6921 77.8708 15.5902 78.0831 15.3354C78.2529 15.1315 78.26 14.8621 78.0831 14.651C77.7364 14.2288 76.9935 13.5808 75.628 13.3842C73.8804 13.1367 73.5478 13.9958 73.5478 13.9958H73.5549Z" fill="#210702"/>
<path d="M68.7154 13.9084C68.7154 13.9084 69.1682 14.8549 67.2649 15.0223C65.8216 15.1461 64.0881 15.5829 63.2745 15.7867C62.8075 15.9032 62.2839 15.794 62.0221 15.5319C61.817 15.3208 61.824 15.0514 62.0504 14.8476C62.5174 14.4326 64.3216 13.4279 66.0763 13.2605C68.3333 13.0421 68.7154 13.9084 68.7154 13.9084Z" fill="#210702"/>
<path d="M72.812 28.3963C72.812 28.3963 70.3993 28.9132 67.5197 27.6027" stroke="#1F0004" stroke-width="0.49" stroke-linecap="round" stroke-linejoin="round"/>
<path d="M73.286 24.2028C73.286 24.2028 61.4844 24.0936 57.6213 31.2866C57.6213 31.2866 60.9396 37.6496 68.772 37.038C70.0597 36.9361 71.312 36.5211 72.4016 35.8004C74.1988 34.6137 76.5053 31.8836 77.7223 27.1295L73.286 24.2028Z" fill="white"/>
<path d="M55.8737 21.6911L64.6259 27.7775" stroke="white" stroke-miterlimit="10"/>
<path d="M56.277 28.7021L58.6118 32.1384" stroke="white" stroke-miterlimit="10"/>
<path d="M56.1709 12.2704L57.8972 23.8606L47.2914 15.8304L56.1709 12.2704Z" fill="#200803"/>
<path d="M70.5125 4.12365C70.5125 4.12365 64.5197 14.9713 52.5625 18.961C52.5625 18.961 47.6522 18.6989 52.5625 9.83143C57.4727 0.971263 70.5125 4.11637 70.5125 4.11637V4.12365Z" fill="#200803"/>
<path d="M49.1097 26.3578C49.9517 28.8768 52.612 30.2091 55.06 29.35C57.5081 28.4837 58.8029 25.7463 57.968 23.2273C57.126 20.7083 54.4657 19.376 52.0177 20.235C49.5696 21.1014 48.2748 23.8388 49.1097 26.3578Z" fill="#C7777A"/>
<path d="M51.7488 23.6787C51.7488 23.6787 55.0671 22.3973 55.8737 26.1904" stroke="#1F0004" stroke-width="0.49" stroke-linecap="round" stroke-linejoin="round"/>
<path d="M75.2671 52.4359C75.2671 52.4359 89.9767 53.0985 94.5261 68.1032C99.0755 83.1007 110.396 100.988 96.9742 110.242L81.2458 100.581L75.2671 52.4432V52.4359Z" fill="white"/>
<path d="M76.3213 55.1806H48.855V112.71H76.3213V55.1806Z" fill="#8BD5EE"/>
<path d="M55.0034 50.3902L48.4659 52.1229C48.4659 52.1229 52.52 63.7205 66.2815 62.2207C80.0429 60.721 73.5903 51.97 73.5903 51.97L67.2437 50.645L55.0105 50.3902H55.0034Z" fill="#C7777A"/>
<path d="M53.4752 50.7906C53.4752 50.7906 58.6897 112.986 56.9845 184.479H26.7093L40.3434 99.4378L35.8789 60.6409C35.5534 57.7943 37.2798 55.1297 39.9543 54.3361L53.4681 50.7833L53.4752 50.7906Z" fill="white"/>
<path d="M53.0648 51.14L43.4282 59.3959L50.3762 63.5603L45.1546 69.1152L55.8737 101.556" stroke="#CFEAE7" stroke-width="1.06" stroke-linecap="round" stroke-linejoin="round"/>
<path d="M67.2437 50.645C67.2437 50.645 71.7861 57.9981 71.687 98.3093C71.6092 131.122 76.2011 182.958 76.2011 182.958H96.7902L79.7741 97.2973L80.5736 56.8842C80.6161 54.8894 79.2576 53.1494 77.3543 52.749L67.2366 50.6377L67.2437 50.645Z" fill="white"/>
<path d="M80.425 64.4412L80.0854 80.0648" stroke="#CFEAE7" stroke-width="1.06" stroke-linecap="round" stroke-linejoin="round"/>
<path d="M67.6682 50.645L77.3968 58.7116L73.4912 62.3517L77.3968 65.4677L72.812 102.161" stroke="#CFEAE7" stroke-width="1.06" stroke-linecap="round" stroke-linejoin="round"/>
<path d="M75.7412 72.3113L68.1918 99.6416L78.7057 100.988L80.5665 98.0472L90.7833 66.1521L75.7412 72.3113Z" fill="#2862B7"/>
<path d="M82.017 99.0009L82.583 94.7274C82.9863 93.7809 83.0641 92.6962 82.0806 92.4778C81.5075 92.3467 80.9132 92.5506 80.5311 93.0092L77.8991 96.4164C77.8991 96.4164 71.7012 97.0571 70.2083 91.0727C70.2083 91.0727 67.2083 89.5147 65.9419 100.086C65.7367 101.818 66.4018 103.558 67.7178 104.658C69.5503 106.179 72.8049 107.592 78.076 106.056L82.017 99.0155V99.0009Z" fill="#C7777A"/>
<path d="M78.076 106.048L84.8754 108.356L87.5498 100.595L80.425 97.7196L78.076 106.048Z" fill="#C7777A"/>
<path d="M84.0759 98.1637L78.076 112.018C78.076 112.018 88.972 116.139 96.9812 110.249L98.0284 97.7342L84.0759 98.171V98.1637Z" fill="white"/>
<path d="M83.9697 98.404L96.5496 97.2464" stroke="#CFEAE7" stroke-width="1.06" stroke-linecap="round" stroke-linejoin="round"/>
<path d="M41.433 53.9575C41.433 53.9575 23.6245 56.3673 1.91033 91.3129L14.7308 102.161C14.7308 102.161 32.2351 82.4527 43.4212 75.1579L41.433 53.9575Z" fill="white"/>
<path d="M38.0156 79.6061L41.6382 76.3955" stroke="#CFEAE7" stroke-width="1.06" stroke-linecap="round" stroke-linejoin="round"/>
<path d="M52.237 106.238L43.2726 103.107L43.782 101.039C43.966 100.29 43.6546 99.4887 43.0179 99.0883C42.3599 98.6806 41.5321 98.7971 41.0156 99.3795L33.9332 107.541L28.5559 113.838C33.6572 117.187 38.7373 117.275 40.301 116.212C40.5061 116.248 47.3904 117.537 47.3904 117.537C48.0696 117.726 48.763 117.318 48.9753 116.605C49.1309 116.088 49.0885 115.309 47.6522 114.807L49.0885 115.309C49.8102 115.505 50.5389 115.069 50.7441 114.311C50.9422 113.642 50.454 112.877 49.5908 112.462L50.6663 112.717C51.4516 112.935 52.2582 112.411 52.3997 111.53C52.5271 110.773 52.046 110.038 51.3597 109.798L49.7748 109.252L51.579 109.412C52.428 109.579 53.2417 108.982 53.369 108.043C53.4752 107.242 52.9587 106.478 52.237 106.223V106.238Z" fill="#C7777A"/>
<path d="M33.9332 107.541L21.3745 99.3868L17.9147 108.545L28.5559 113.838L33.9332 107.541Z" fill="#C7777A"/>
<path d="M11.8158 89.2234L33.5723 102.961L26.6527 114.785L5.50459 104.636C0.806586 102.976 -1.36553 97.4138 0.90564 92.8709C2.9504 88.7793 7.81822 87.1558 11.8087 89.2234H11.8158Z" fill="white"/>
<path d="M21.8061 95.5355L14.3912 90.8542" stroke="#CFEAE7" stroke-width="1.06" stroke-linecap="round" stroke-linejoin="round"/>
</g>
<g clip-path="url(#clip1_18_422)">
<path d="M183.994 57.1964C183.994 57.1964 175.313 61.3839 174.625 74.5956C173.938 87.8072 175.711 105.017 175.711 105.017L185.802 103.9L188.788 70.2111L183.994 57.1891V57.1964Z" fill="#F5B087"/>
<path d="M183.065 57.4226C183.065 57.4226 173.81 57.4883 172.512 81.1102H186.079L183.058 57.4226H183.065Z" fill="#357DD1"/>
<path d="M175.711 105.024L176.505 153.698C176.533 155.288 177.732 156.594 179.278 156.703C180.916 156.82 182.341 155.543 182.455 153.858L185.809 103.915L175.718 105.031L175.711 105.024Z" fill="#F5B087"/>
<path d="M176.498 167.858L172.711 178.093C172.498 178.662 171.895 178.961 171.335 178.779C170.76 178.596 170.434 177.976 170.59 177.385L171.923 172.308L176.505 167.858H176.498Z" fill="#E09069"/>
<path d="M178.866 150.692C180.49 150.437 182.001 151.611 182.2 153.289L182.526 156.01C182.526 156.01 184.441 161.401 182.058 166.355C180.568 169.455 180.093 171.659 179.944 172.87C179.866 173.504 179.37 173.993 178.746 174.008C178.093 174.029 177.533 173.526 177.469 172.855C177.356 171.556 177.306 169.339 177.866 166.96L169.924 177.611C169.583 178.093 168.917 178.159 168.491 177.757C168.193 177.473 168.094 177.028 168.25 176.648L173.533 162.058C173.533 162.058 175.455 156.813 176.448 153.063C176.774 151.837 177.647 150.874 178.866 150.685V150.692Z" fill="#F5B087"/>
<path d="M176.59 285.333L168.789 289.294C167.959 289.717 167.463 290.673 167.718 291.585C167.924 292.307 168.583 292.971 170.321 293C174.179 293.073 191.249 290.337 191.249 290.337V292.176L199.17 291.256C199.17 291.256 199.724 281.94 197.312 280.576L176.597 285.333H176.59Z" fill="#241812"/>
<path d="M189.164 276.009L176.59 285.333C176.59 285.333 177.937 288.893 183.887 286.522C189.845 284.151 197.305 280.576 197.305 280.576L196.22 275.003L189.164 276.009Z" fill="#F5B087"/>
<path d="M197.305 280.576L199.213 246.026L186.653 247.252L187.774 279.343L197.305 280.576Z" fill="#F5B087"/>
<path d="M228.155 285.333L235.956 289.294C236.786 289.717 237.282 290.673 237.027 291.585C236.821 292.307 236.162 292.971 234.424 293C230.566 293.073 213.496 290.337 213.496 290.337V292.176L205.574 291.256C205.574 291.256 205.021 281.94 207.432 280.576L228.148 285.333H228.155Z" fill="#241812"/>
<path d="M215.581 276.009L228.155 285.333C228.155 285.333 226.807 288.893 220.857 286.522C214.9 284.151 207.44 280.576 207.44 280.576L208.525 275.003L215.581 276.009Z" fill="#F5B087"/>
<path d="M207.44 280.576V245.413L219.999 246.639L216.971 279.343L207.44 280.576Z" fill="#F5B087"/>
<path d="M190.093 103.879C190.093 103.879 178.37 111.991 180.831 149.014C183.292 186.037 185.632 270.75 185.632 270.75H199.071L203.369 135.146L205.454 135.438L205.397 270.75H218.836L227.368 146.249C227.368 146.249 231.027 121.54 219.255 103.879C219.255 103.879 205.624 94.6428 190.1 103.879H190.093Z" fill="#255D9F"/>
<path d="M199.284 135.131L210.51 135.737" stroke="#1F0004" stroke-width="0.49" stroke-linecap="round" stroke-linejoin="round"/>
<path d="M182.171 120.679L181.795 122.708L226.985 125.042C226.985 125.042 226.212 119.95 225.091 116.594L182.171 120.679Z" fill="#245891"/>
<path d="M225.737 32.6334C225.737 41.9932 216.468 48.092 205.028 48.092C193.589 48.092 184.32 41.9932 184.32 32.6334C184.32 23.2736 193.589 15.6866 205.028 15.6866C216.468 15.6866 225.737 23.2736 225.737 32.6334Z" fill="#200803"/>
<path d="M192.603 23.2007C192.603 23.2007 190.242 21.3185 188.518 23.5509C185.902 26.9504 190.483 33.1076 194.469 29.9415L192.603 23.2007Z" fill="#F5B087"/>
<path d="M190.213 25.4841C190.213 25.4841 191.533 25.061 192.958 27.9134" stroke="#1F0004" stroke-width="0.48" stroke-linecap="round" stroke-linejoin="round"/>
<path d="M217.893 23.2007C217.893 23.2007 220.255 21.3185 221.978 23.5509C224.595 26.9504 220.013 33.1076 216.028 29.9415L217.893 23.2007Z" fill="#F5B087"/>
<path d="M220.276 25.4841C220.276 25.4841 218.957 25.061 217.531 27.9134" stroke="#1F0004" stroke-width="0.48" stroke-linecap="round" stroke-linejoin="round"/>
<path d="M205.333 30.8242C213.668 30.8242 220.425 24.0469 220.425 15.6866C220.425 7.32634 213.668 0.549011 205.333 0.549011C196.998 0.549011 190.242 7.32634 190.242 15.6866C190.242 24.0469 196.998 30.8242 205.333 30.8242Z" fill="#200803"/>
<path d="M200.582 36.923L199.149 52.9506H211.262L209.021 36.7479L200.582 36.923Z" fill="#F5B087"/>
<path d="M201.326 38.0027C201.66 38.1997 209.702 44.2693 209.702 44.2693L209.021 36.7479L201.326 38.0027Z" fill="#E09069"/>
<path d="M192.015 15.6209C192.015 15.6209 192.093 39.0021 204.808 39.0021C219.758 39.0021 218.191 15.6355 218.191 15.6355C218.191 15.6355 218.106 5.11581 205.269 5.11581C193.504 5.11581 192.015 15.6282 192.015 15.6282V15.6209Z" fill="#F5B087"/>
<path d="M199.695 24.2585C200.298 24.2585 200.787 23.7555 200.787 23.135C200.787 22.5146 200.298 22.0116 199.695 22.0116C199.092 22.0116 198.603 22.5146 198.603 23.135C198.603 23.7555 199.092 24.2585 199.695 24.2585Z" fill="black"/>
<path d="M210.595 24.2585C211.199 24.2585 211.688 23.7555 211.688 23.135C211.688 22.5146 211.199 22.0116 210.595 22.0116C209.992 22.0116 209.503 22.5146 209.503 23.135C209.503 23.7555 209.992 24.2585 210.595 24.2585Z" fill="black"/>
<path d="M204.376 25.6373V27.7748L205.667 27.7967" stroke="#1F0004" stroke-width="0.48" stroke-linecap="round" stroke-linejoin="round"/>
<path d="M207.723 16.7736C207.723 16.7736 207.404 17.7147 209.205 17.7366C210.574 17.7511 212.241 18.043 213.028 18.1743C213.475 18.2545 213.957 18.1086 214.17 17.846C214.34 17.6271 214.305 17.3718 214.063 17.1967C213.581 16.8319 211.78 16.0003 210.12 15.9711C207.986 15.9273 207.73 16.7809 207.73 16.7809L207.723 16.7736Z" fill="#200803"/>
<path d="M202.227 16.7954C202.227 16.7954 202.546 17.7365 200.745 17.7584C199.376 17.773 197.71 18.0648 196.922 18.1961C196.476 18.2763 195.993 18.1304 195.781 17.8678C195.61 17.6489 195.646 17.3936 195.887 17.2185C196.369 16.8538 198.171 16.0221 199.83 15.9929C201.965 15.9492 202.22 16.8027 202.22 16.8027L202.227 16.7954Z" fill="#200803"/>
<path d="M201.724 30.35H208.532C208.532 30.35 207.496 32.6334 204.879 32.6334C202.263 32.6334 201.724 30.35 201.724 30.35Z" fill="white"/>
<path d="M198.383 28.8982C201.317 28.8982 203.695 26.4519 203.695 23.4341C203.695 20.4164 201.317 17.97 198.383 17.97C195.45 17.97 193.071 20.4164 193.071 23.4341C193.071 26.4519 195.45 28.8982 198.383 28.8982Z" stroke="white" stroke-width="0.83" stroke-miterlimit="10"/>
<path d="M211.659 28.8982C214.593 28.8982 216.971 26.4519 216.971 23.4341C216.971 20.4164 214.593 17.97 211.659 17.97C208.726 17.97 206.347 20.4164 206.347 23.4341C206.347 26.4519 208.726 28.8982 211.659 28.8982Z" stroke="white" stroke-width="0.83" stroke-miterlimit="10"/>
<path d="M206.347 23.4341C205.121 22.3107 203.695 23.4341 203.695 23.4341" stroke="white" stroke-width="0.83" stroke-miterlimit="10"/>
<path d="M190.859 15.3218C190.859 15.3218 204.752 17.9992 205.269 5.11583C205.269 5.11583 198.256 -3.084 190.859 15.3218Z" fill="#200803"/>
<path d="M218.893 15.3218C218.893 15.3218 205 17.9992 204.482 5.11583C204.482 5.11583 211.496 -3.084 218.893 15.3218Z" fill="#200803"/>
<path d="M199.149 52.9506L183.065 57.4226C183.065 57.4226 185.951 82.2118 188.682 98.0497C188.916 99.4212 180.54 119.461 180.76 120.672L228.417 120.607C228.417 120.607 220.354 100.384 220.971 97.8236C223.098 88.9744 227.9 56.9338 227.9 56.9338L211.269 52.9433H199.149V52.9506Z" fill="#2862B7"/>
<path d="M199.149 52.9506L205.028 66.6583L211.262 52.9506H199.149Z" fill="#F5B087"/>
<path d="M198.88 53.1986L194.766 56.9703L205.028 66.6583" stroke="#23538A" stroke-width="1.03" stroke-linecap="round" stroke-linejoin="round"/>
<path d="M211.56 53.381L215.468 56.9703L205.028 66.6583" stroke="#23538A" stroke-width="1.03" stroke-linecap="round" stroke-linejoin="round"/>
<path d="M216.971 54.3221C216.971 54.3221 221.503 57.4518 219.389 72.6258" stroke="#1F0004" stroke-width="1.03" stroke-linecap="round" stroke-linejoin="round"/>
<path d="M222.793 73.9025C222.793 75.843 221.269 77.4115 219.382 77.4115C217.496 77.4115 215.971 75.843 215.971 73.9025C215.971 71.962 217.496 70.3935 219.382 70.3935C221.269 70.3935 222.793 71.962 222.793 73.9025Z" fill="#1F0004"/>
<path d="M221.276 73.9025C221.276 74.9749 220.425 75.8503 219.382 75.8503C218.34 75.8503 217.489 74.9749 217.489 73.9025C217.489 72.8301 218.34 71.9547 219.382 71.9547C220.425 71.9547 221.276 72.8301 221.276 73.9025Z" fill="#8BD5EE"/>
<path d="M192.958 54.6723C192.958 54.6723 188.781 59.8081 191.696 70.4591" stroke="#1F0004" stroke-width="1.03" stroke-linecap="round" stroke-linejoin="round"/>
<path d="M193.178 90.4116C193.539 91.2943 194.383 91.8341 195.27 91.8341C195.561 91.8341 195.859 91.7758 196.142 91.6517L196.752 91.3891C196.937 91.3089 197.029 91.09 196.951 90.9003C196.873 90.7107 196.66 90.6231 196.476 90.6961L195.866 90.9587C195.086 91.2943 194.185 90.9149 193.859 90.1198C193.192 88.4929 192.064 85.7353 191.057 83.2477C190.837 83.3498 190.611 83.4519 190.391 83.5613C191.398 86.049 192.518 88.792 193.185 90.4189L193.178 90.4116Z" fill="#8BD5EE"/>
<path d="M204.773 85.4144L201.958 78.4839C201.731 78.5714 201.504 78.6663 201.277 78.7611L204.099 85.7062C204.255 86.1001 204.262 86.5305 204.099 86.9172C203.943 87.3111 203.645 87.6102 203.27 87.778L202.248 88.2157C202.064 88.296 201.972 88.5148 202.05 88.7045C202.128 88.8942 202.341 88.989 202.525 88.9088L203.546 88.471C204.702 87.975 205.248 86.6035 204.766 85.4144H204.773Z" fill="#8BD5EE"/>
<path d="M199.993 73.6544C199.348 72.0568 198.135 70.8239 196.582 70.1673C195.029 69.5107 193.32 69.518 191.767 70.1819C188.575 71.5534 187.058 75.3396 188.384 78.6225C188.738 79.4979 189.518 81.4384 190.384 83.5614C190.603 83.4592 190.83 83.3571 191.05 83.2477C190.192 81.132 189.412 79.2061 189.057 78.3307C187.887 75.4272 189.228 72.0787 192.05 70.8677C193.419 70.2767 194.93 70.2767 196.305 70.8531C197.681 71.4367 198.752 72.531 199.319 73.9389L201.277 78.7611C201.504 78.6663 201.731 78.5714 201.958 78.4839L199.993 73.6544Z" fill="#1F0004"/>
<path d="M198.085 90.4116C198.348 91.0609 198.05 91.805 197.419 92.0749C196.788 92.3448 196.064 92.0384 195.802 91.3891C195.539 90.7399 195.837 89.9957 196.468 89.7258C197.1 89.4559 197.823 89.7623 198.085 90.4116Z" fill="#1F0004"/>
<path d="M202.823 88.3762C203.085 89.0255 202.787 89.7696 202.156 90.0395C201.525 90.3094 200.802 90.003 200.539 89.3538C200.277 88.7045 200.575 87.9604 201.206 87.6905C201.837 87.4205 202.56 87.7269 202.823 88.3762Z" fill="#1F0004"/>
<path d="M231.673 63.8935L237.651 66.2717C242.934 78.338 248.289 92.1187 248.289 92.1187L238.488 94.8325L226.545 76.5944L231.673 63.8935Z" fill="#F5B087"/>
<path d="M224.347 77.5866L227.339 81.1102L241.232 75.2813C241.232 75.2813 237.346 59.2391 227.885 56.9703L224.347 77.5866Z" fill="#357DD1"/>
<path d="M248.289 98.553L223.602 127.683L221.233 120.679L238.488 94.8398L248.289 98.553Z" fill="#F5B087"/>
<path d="M221.233 120.679L219.127 122.044L224.63 135.43L225.637 124.633L221.233 120.679Z" fill="#F5B087"/>
<path d="M248.289 92.1259C248.289 92.1259 251.26 96.131 248.289 98.5457C245.317 100.96 238.864 99.4504 238.864 99.4504L238.488 94.8325L248.289 92.1187V92.1259Z" fill="#F5B087"/>
</g>
<g clip-path="url(#clip2_18_422)">
<path d="M329.787 277.037H317.391L296.882 288.255L332.14 287.828L329.787 277.037Z" fill="#1F0004"/>
<path d="M323.493 290.418C324.656 290.418 325.6 291.411 325.621 292.65L332.264 292.573L332.14 287.828L296.882 288.255L297.005 293L321.359 292.699C321.359 291.432 322.317 290.411 323.493 290.411V290.418Z" fill="#200803"/>
<path d="M308.819 281.166L312.883 282.306" stroke="white" stroke-width="1.06" stroke-miterlimit="10"/>
<path d="M312.787 279.08L316.851 280.221" stroke="white" stroke-width="1.06" stroke-miterlimit="10"/>
<path d="M329.787 259.149H317.152V277.03H329.787V259.149Z" fill="white"/>
<path d="M346.746 277.037H359.149L379.651 288.255L344.393 287.828L346.746 277.037Z" fill="#1F0004"/>
<path d="M353.04 290.418C351.877 290.418 350.933 291.411 350.912 292.65L344.269 292.573L344.393 287.828L379.651 288.255L379.528 293L355.174 292.699C355.174 291.432 354.216 290.411 353.04 290.411V290.418Z" fill="#200803"/>
<path d="M367.72 281.166L363.657 282.306" stroke="white" stroke-width="1.06" stroke-miterlimit="10"/>
<path d="M363.746 279.08L359.682 280.221" stroke="white" stroke-width="1.06" stroke-miterlimit="10"/>
<path d="M358.519 259.149H345.884L346.746 277.037H359.388L358.519 259.149Z" fill="white"/>
<path d="M354.346 130.545C355.167 139.517 361.016 270.157 361.016 270.157H343.941L336.457 152.793L333.379 152.856L331.388 270.157H314.347C314.347 270.157 313.417 148.09 314.409 130.825L354.333 130.545H354.346Z" fill="#2862B7"/>
<path d="M329.076 152.877H339.529" stroke="#1F0004" stroke-width="0.49" stroke-linecap="round" stroke-linejoin="round"/>
<path d="M326.305 29.1937C326.367 31.7061 324.424 33.7916 321.968 33.8546C319.512 33.9176 317.473 31.93 317.412 29.4176C317.35 26.9052 319.293 24.8196 321.749 24.7566C324.205 24.6937 326.243 26.6812 326.305 29.1937Z" fill="#F5B087"/>
<path d="M319.334 28.6618C319.334 28.6618 321.106 27.787 322.782 30.9363" stroke="#1F0004" stroke-width="0.49" stroke-linecap="round" stroke-linejoin="round"/>
<path d="M342.546 29.3826C342.539 31.895 344.523 33.9386 346.979 33.9526C349.434 33.9596 351.432 31.93 351.446 29.4176C351.453 26.9051 349.469 24.8616 347.013 24.8476C344.557 24.8336 342.559 26.8702 342.546 29.3826Z" fill="#F5B087"/>
<path d="M349.51 28.6968C349.51 28.6968 347.717 27.8569 346.11 31.0482" stroke="#1F0004" stroke-width="0.49" stroke-linecap="round" stroke-linejoin="round"/>
<path d="M326.804 8.66721C326.804 8.66721 323.069 7.15555 320.039 12.0195C315.531 19.2489 323.938 30.7333 323.938 30.7333L326.804 8.67421V8.66721Z" fill="#200803"/>
<path d="M341.93 8.66721C341.93 8.66721 345.665 7.15555 348.696 12.0195C353.204 19.2489 344.796 30.7333 344.796 30.7333L341.93 8.67421V8.66721Z" fill="#200803"/>
<path d="M334.206 35.3593C341.971 35.3593 348.265 28.9203 348.265 20.9775C348.265 13.0346 341.971 6.59567 334.206 6.59567C326.442 6.59567 320.148 13.0346 320.148 20.9775C320.148 28.9203 326.442 35.3593 334.206 35.3593Z" fill="#200803"/>
<path d="M339.474 39.1594C339.474 39.1594 337.579 41.6649 335.294 42.1058C333.009 42.5467 330.786 41.182 330.759 41.161C330.731 41.147 328.645 38.6765 328.645 38.6765L327.55 54.549L340.89 54.472L339.467 39.1664L339.474 39.1594Z" fill="#F5B087"/>
<path d="M329.315 41.6369L340.199 47.8725L339.474 39.1594L329.315 41.6369Z" fill="#E09069"/>
<path d="M346.465 21.4744C346.472 26.6182 345.761 31.0622 345.049 34.2115C344.352 37.2978 342.381 39.4534 339.59 41.196L339.084 41.5109C336.136 43.3515 332.318 43.4005 329.315 41.6369C326.285 39.8593 324.164 37.5078 323.507 34.1975C322.31 28.1789 322.228 22.8951 322.228 22.8951C322.228 22.8951 320.518 7.8274 333.618 7.8204C347.806 7.8204 346.472 21.4744 346.472 21.4744H346.465Z" fill="#F5B087"/>
<path d="M346.253 27.577C346.253 27.577 344.598 34.6594 341.143 33.9526C339.31 33.5747 338.284 33.0428 337.299 32.6649C334.172 31.2302 331.19 32.6019 331.19 32.6019C330.15 32.9868 329.124 33.5607 327.181 33.9526C323.726 34.6594 322.536 28.1929 322.536 28.1929C322.536 28.1929 321.783 32.112 323.897 36.9059C325.224 39.9223 327.153 41.4269 328.994 42.1478C329.055 42.1758 329.117 42.1968 329.171 42.2178C329.171 42.2178 329.178 42.2178 329.185 42.2178C334.22 44.1843 338.653 42.4767 338.653 42.4767C340.781 41.9448 343.216 40.4891 344.803 36.8989C346.917 32.105 346.247 27.57 346.247 27.57L346.253 27.577Z" fill="#291C1C"/>
<path d="M329.712 25.9394C329.712 26.5412 329.233 27.0241 328.645 27.0171C328.056 27.0171 327.584 26.5272 327.591 25.9254C327.591 25.3235 328.07 24.8406 328.658 24.8476C329.247 24.8476 329.719 25.3375 329.712 25.9394Z" fill="#1F0004"/>
<path d="M340.117 25.9744C340.117 26.5762 339.638 27.0591 339.05 27.0521C338.461 27.0521 337.989 26.5622 337.996 25.9604C337.996 25.3585 338.475 24.8756 339.063 24.8826C339.652 24.8826 340.124 25.3725 340.117 25.9744Z" fill="#1F0004"/>
<path d="M333.372 26.6602L333.249 30.3764L334.767 30.3834" stroke="#1F0004" stroke-width="0.49" stroke-linecap="round" stroke-linejoin="round"/>
<path d="M336.532 18.563C336.532 18.563 336.218 19.7318 337.996 19.7528C339.344 19.7738 340.986 20.1307 341.766 20.2986C342.204 20.3966 342.682 20.2217 342.888 19.8857C343.059 19.6198 343.018 19.2979 342.785 19.0739C342.306 18.626 340.534 17.5902 338.892 17.5482C336.785 17.4923 336.532 18.556 336.532 18.556V18.563Z" fill="#1F0004"/>
<path d="M331.107 18.5909C331.107 18.5909 331.422 19.7596 329.643 19.7876C328.296 19.8086 326.654 20.1656 325.874 20.3335C325.436 20.4315 324.957 20.2565 324.752 19.9206C324.581 19.6547 324.622 19.3327 324.855 19.1088C325.334 18.6609 327.105 17.6251 328.747 17.5831C330.854 17.5271 331.107 18.5909 331.107 18.5909Z" fill="#1F0004"/>
<path d="M332.27 34.7854C332.27 34.7854 334.843 35.8282 336.505 34.0436" stroke="white" stroke-width="0.49" stroke-linecap="round" stroke-linejoin="round"/>
<path d="M346.356 13.7411C346.356 13.7411 336.915 6.37173 324.307 11.3756C324.307 11.3756 318.342 3.86629 327.591 1.1019C336.84 -1.66248 345.508 6.55369 346.349 13.7481L346.356 13.7411Z" fill="#200803"/>
<path d="M298.278 172.144L296.424 183.523C296.321 184.153 295.753 184.594 295.131 184.524C294.501 184.454 294.036 183.887 294.077 183.243L294.426 177.715L298.271 172.144H298.278Z" fill="#E09069"/>
<path d="M297.245 153.92C298.88 153.311 300.686 154.2 301.233 155.893L302.122 158.63C302.122 158.63 305.207 163.781 303.737 169.407C302.82 172.921 302.772 175.3 302.868 176.588C302.916 177.26 302.498 177.869 301.855 178.023C301.178 178.183 300.494 177.792 300.302 177.106C299.919 175.79 299.42 173.516 299.516 170.94L293.434 183.628C293.181 184.195 292.504 184.412 291.977 184.09C291.608 183.866 291.423 183.425 291.505 182.991L294.022 166.804C294.022 166.804 294.953 160.981 295.22 156.901C295.309 155.572 296.02 154.382 297.245 153.927V153.92Z" fill="#F5B087"/>
<path d="M297.498 123.778L295.247 156.642L300.952 157.993L306.753 128.089L297.498 123.778Z" fill="#F5B087"/>
<path d="M311.563 62.1143C311.563 62.1143 301.117 65.0957 298.708 87.1827C296.212 110.047 290.588 156.418 290.588 156.418L305.762 156.831L317.145 79.9184L311.556 62.1143H311.563Z" fill="white"/>
<path d="M323.89 56.8025L318.848 66.4673V131.245H349.51V63.528L344.564 56.8025H323.89Z" fill="#8BD5EE"/>
<path d="M340.897 54.465L334.754 60.8126L327.557 54.549L340.897 54.465Z" fill="#F5B087"/>
<path d="M327.557 54.549L323.89 56.8025L329.315 66.4674L334.754 60.8126L327.557 54.549Z" fill="#AFE2FD"/>
<path d="M340.897 54.465L344.564 56.8025L340.213 66.4674L334.767 60.8126L340.897 54.465Z" fill="#AFE2FD"/>
<path d="M323.89 56.8025L311.563 62.1143L309.716 187.575H327.981L323.89 56.8025Z" fill="white"/>
<path d="M310.653 124.533V86.4269" stroke="#CFEAE7" stroke-width="1.06" stroke-linecap="round" stroke-linejoin="round"/>
<path d="M323.61 57.1104L315.229 66.4673L321.058 70.4215L317.152 75.0754L325.635 112.636" stroke="#CFEAE7" stroke-width="1.06" stroke-linecap="round" stroke-linejoin="round"/>
<path d="M344.564 56.8025L356.898 62.1143L360.476 187.575H342.21L344.564 56.8025Z" fill="white"/>
<path d="M344.995 57.1104L353.375 66.4673L347.546 70.4215L351.453 75.0754L342.97 112.636" stroke="#CFEAE7" stroke-width="1.06" stroke-linecap="round" stroke-linejoin="round"/>
<path d="M355.03 61.4565C355.03 61.4565 365.825 62.4643 372.092 83.7395C375.889 96.6377 378.112 107.114 379.295 113.588C380.027 117.563 378.639 123.708 374.773 124.561C371.161 125.359 366.407 120.95 365.21 117.374L352.67 80.0094L355.024 61.4635L355.03 61.4565Z" fill="white"/>
<path d="M344.632 99.1501L351.61 83.8515L380 78.4627L362.576 107.086L358.129 111.383L351.254 112.636L343.107 105.918L344.632 99.1501Z" fill="#2862B7"/>
<path d="M359.805 108.5L350.912 107.555C350.912 107.555 353.854 100.151 344.632 99.1501L345.535 97.0506L343.661 97.2325C341.916 97.5195 340.35 98.5062 339.31 99.9759L337.873 103.188C337.223 104.112 336.868 105.218 336.868 106.358V107.786C336.868 109.809 337.976 111.663 339.734 112.594L346.869 115.778C346.869 115.778 354.182 118.781 364.916 118.053C364.916 118.053 365.524 110.705 359.799 108.514L359.805 108.5Z" fill="#F5B087"/>
<path d="M357.083 107.317L353.799 123.162L373.843 124.638L374.773 107.317H357.083Z" fill="white"/>
<path d="M363.281 107.086H372.208" stroke="#CFEAE7" stroke-width="1.06" stroke-linecap="round" stroke-linejoin="round"/>
</g>
<defs>
<clipPath id="clip0_18_422">
<rect width="125.735" height="292.451" fill="white" transform="translate(0 0.549011)"/>
</clipPath>
<clipPath id="clip1_18_422">
<rect width="81.9608" height="292.451" fill="white" transform="translate(167.647 0.549011)"/>
</clipPath>
<clipPath id="clip2_18_422">
<rect width="89.4118" height="292.451" fill="white" transform="translate(290.588 0.549011)"/>
</clipPath>
</defs>
</svg>
